<?xml version="1.0" standalone="no"?>
<!DOCTYPE svg PUBLIC "-//W3C//DTD SVG 20010904//EN"
 "http://www.w3.org/TR/2001/REC-SVG-20010904/DTD/svg10.dtd">
<svg version="1.0" xmlns="http://www.w3.org/2000/svg"
 width="640.000000pt" height="381.000000pt" viewBox="0 0 640.000000 381.000000"
 preserveAspectRatio="xMidYMid meet">

<g transform="translate(0.000000,381.000000) scale(0.100000,-0.100000)"
fill="#000000" stroke="none">
<path d="M3472 3789 c-79 -10 -221 -50 -333 -94 -257 -101 -440 -237 -646
-481 -120 -142 -246 -335 -236 -361 7 -20 21 -15 29 9 12 40 114 202 177 283
83 106 211 227 337 318 36 26 83 60 105 76 59 43 242 136 305 155 30 10 63 21
72 27 40 21 48 8 13 -22 -20 -18 -51 -64 -71 -106 -36 -74 -36 -76 -32 -181 4
-114 19 -158 70 -213 l24 -26 -31 -12 c-17 -6 -40 -11 -51 -11 -10 0 -37 -11
-59 -24 -22 -14 -61 -37 -87 -52 -27 -15 -48 -31 -48 -36 0 -4 41 -8 90 -8 85
0 90 -1 90 -21 0 -11 3 -19 8 -17 248 128 375 138 500 39 136 -108 162 -374
62 -626 -147 -369 -457 -623 -703 -575 -96 18 -179 76 -218 152 -45 87 -61
240 -38 362 7 39 7 62 1 68 -17 17 -33 -57 -39 -172 -5 -96 -3 -112 22 -185
15 -44 31 -84 35 -90 4 -5 10 -19 13 -30 4 -11 -13 2 -38 30 -25 27 -43 56
-40 63 3 7 1 11 -4 8 -9 -6 -24 23 -59 114 -17 48 -25 94 -30 175 -5 99 -7
105 -13 60 -17 -107 19 -264 85 -369 94 -151 222 -222 385 -215 l78 4 -23 -35
c-13 -20 -35 -68 -49 -108 -43 -124 -32 -268 32 -407 26 -57 45 -80 109 -134
l29 -24 -50 -13 c-55 -14 -96 -16 -258 -15 -60 1 -106 5 -103 9 3 5 -13 9 -36
10 -64 3 -91 52 -33 62 53 9 3 30 -96 39 -112 11 -188 38 -275 97 -35 24 -68
44 -73 44 -15 0 -79 80 -127 158 -60 99 -111 222 -129 312 -10 48 -25 74 -36
63 -13 -13 45 -212 84 -293 114 -230 295 -397 519 -479 120 -44 189 -55 333
-55 268 1 519 77 752 229 169 111 364 293 480 450 128 174 113 160 174 163 30
2 58 7 62 11 5 5 -3 6 -17 4 -22 -4 -26 -2 -26 16 0 12 -4 19 -10 16 -6 -4
-10 7 -10 25 0 18 4 29 10 25 6 -4 13 7 16 24 4 18 11 28 17 24 6 -3 7 -1 3 5
-3 6 18 84 48 174 47 141 66 220 92 377 4 25 8 31 14 21 5 -8 12 -11 16 -7 4
4 2 13 -4 19 -8 8 -12 58 -13 148 -1 169 -9 220 -52 345 -71 205 -122 292
-242 411 -154 151 -302 230 -504 268 -88 17 -243 19 -349 5z m266 -19 c219
-24 409 -105 527 -225 99 -100 185 -289 205 -454 5 -35 14 -68 20 -75 18 -16
3 98 -26 203 -13 47 -22 87 -20 88 9 9 94 -200 101 -247 1 -8 5 -22 8 -30 16
-43 27 -163 27 -296 l0 -149 -30 48 c-17 26 -34 47 -39 47 -5 0 -13 9 -16 20
-4 11 -11 18 -16 14 -6 -3 -18 1 -28 10 -35 31 -170 86 -229 92 -74 8 -194
-12 -253 -42 -26 -13 -65 -45 -88 -71 l-41 -48 0 70 c-1 126 -32 212 -107 296
-79 87 -183 132 -333 144 -57 5 -91 13 -104 23 -27 24 -83 148 -91 202 -12 82
32 208 101 289 47 55 106 79 216 89 51 5 99 10 106 11 7 0 56 -4 110 -9z
m-229 -640 c28 -16 -83 -12 -120 5 -34 16 -33 16 35 10 38 -3 76 -10 85 -15z
m760 -355 c79 -17 117 -33 170 -73 33 -24 33 -26 27 -80 -19 -158 -92 -367
-168 -474 -10 -15 -36 -63 -58 -107 -22 -43 -44 -82 -50 -86 -6 -4 -31 -37
-54 -74 -39 -60 -100 -131 -196 -231 -45 -47 -175 -150 -220 -174 -19 -11 -53
-34 -74 -52 -21 -19 -55 -39 -75 -45 -20 -6 -56 -23 -81 -37 -56 -33 -110 -58
-180 -84 -30 -11 -59 -24 -64 -29 -42 -39 -105 85 -120 236 -7 64 13 196 35
237 37 69 126 147 151 132 6 -4 8 -3 4 4 -3 6 4 14 16 18 37 11 142 90 211
158 149 147 220 283 301 577 19 69 42 99 103 135 113 66 186 77 322 49z m131
-875 c0 -5 -5 -10 -11 -10 -5 0 -7 5 -4 10 3 6 8 10 11 10 2 0 4 -4 4 -10z
m-1767 -724 c23 -4 37 -13 37 -21 0 -8 5 -15 11 -15 5 0 7 5 4 10 -4 6 5 10
19 10 25 0 103 -59 79 -60 -7 0 -13 4 -13 8 0 4 -15 8 -32 8 -35 1 -178 62
-178 76 0 5 8 5 18 0 9 -5 34 -12 55 -16z"/>
<path d="M4270 2650 c0 -5 5 -10 10 -10 6 0 10 5 10 10 0 6 -4 10 -10 10 -5 0
-10 -4 -10 -10z"/>
<path d="M3790 2289 c0 -25 33 -22 38 4 2 12 -3 17 -17 17 -15 0 -21 -6 -21
-21z"/>
<path d="M3530 1700 c0 -5 5 -10 10 -10 6 0 10 5 10 10 0 6 -4 10 -10 10 -5 0
-10 -4 -10 -10z"/>
<path d="M3180 3650 c0 -5 5 -10 10 -10 6 0 10 5 10 10 0 6 -4 10 -10 10 -5 0
-10 -4 -10 -10z"/>
<path d="M3136 3631 c-4 -5 -2 -12 3 -15 5 -4 12 -2 15 3 4 5 2 12 -3 15 -5 4
-12 2 -15 -3z"/>
<path d="M3108 2944 c-20 -10 -28 -22 -28 -41 l0 -27 40 39 c22 21 40 40 40
42 0 8 -28 1 -52 -13z"/>
<path d="M4622 2935 c0 -16 2 -22 5 -12 2 9 2 23 0 30 -3 6 -5 -1 -5 -18z"/>
<path d="M4632 2858 c2 -36 7 -44 26 -46 19 -3 22 1 22 32 0 25 -4 36 -15 36
-8 0 -15 5 -15 10 0 6 -5 10 -11 10 -6 0 -9 -17 -7 -42z"/>
<path d="M4767 2719 c1 -67 4 -123 7 -126 9 -10 18 128 11 186 -11 99 -20 70
-18 -60z"/>
<path d="M4637 2784 c-11 -11 -8 -132 3 -139 6 -4 10 5 10 19 0 16 6 26 15 26
11 0 15 11 15 40 0 28 -4 40 -14 40 -8 0 -16 5 -18 11 -2 5 -7 7 -11 3z"/>
<path d="M2395 2700 c-16 -4 -47 -11 -67 -14 -28 -5 -38 -12 -38 -26 0 -18 1
-18 33 -2 51 27 247 24 309 -5 46 -21 47 -22 38 -55 -6 -18 -9 -51 -9 -73 1
-22 3 -31 6 -20 2 11 10 39 18 61 12 37 11 45 -4 71 -34 54 -190 89 -286 63z"/>
<path d="M2710 2285 c0 -16 25 -37 33 -28 13 13 7 31 -13 36 -12 3 -20 0 -20
-8z"/>
<path d="M4528 2075 c2 -14 6 -25 8 -25 2 0 4 11 4 25 0 14 -4 25 -9 25 -4 0
-6 -11 -3 -25z"/>
<path d="M4640 2075 c0 -9 -6 -12 -15 -9 -16 7 -18 -1 -7 -27 6 -14 11 -10 24
17 10 19 13 34 8 34 -6 0 -10 -7 -10 -15z"/>
<path d="M4604 2002 c-16 -11 -24 -41 -14 -47 6 -4 10 2 10 12 0 11 5 24 12
31 13 13 9 16 -8 4z"/>
<path d="M4550 1930 c0 -5 4 -10 9 -10 6 0 13 5 16 10 3 6 -1 10 -9 10 -9 0
-16 -4 -16 -10z"/>
<path d="M2200 1730 c0 -5 5 -10 10 -10 6 0 10 5 10 10 0 6 -4 10 -10 10 -5 0
-10 -4 -10 -10z"/>
<path d="M2800 1306 c0 -8 5 -18 10 -21 6 -3 10 3 10 14 0 12 -4 21 -10 21 -5
0 -10 -6 -10 -14z"/>
<path d="M3140 1190 c0 -5 7 -10 15 -10 8 0 15 5 15 10 0 6 -7 10 -15 10 -8 0
-15 -4 -15 -10z"/>
<path d="M3088 1183 c6 -2 18 -2 25 0 6 3 1 5 -13 5 -14 0 -19 -2 -12 -5z"/>
<path d="M2901 1169 c-61 -12 -63 -19 -5 -19 64 0 124 10 124 21 0 11 -59 10
-119 -2z"/>
<path d="M3038 1173 c6 -2 18 -2 25 0 6 3 1 5 -13 5 -14 0 -19 -2 -12 -5z"/>
<path d="M2867 1128 c6 -11 53 -10 53 1 0 4 -13 8 -29 7 -16 -1 -27 -4 -24 -8z"/>
<path d="M3208 1133 c6 -2 18 -2 25 0 6 3 1 5 -13 5 -14 0 -19 -2 -12 -5z"/>
<path d="M3140 1110 c0 -11 4 -20 9 -20 5 0 16 -3 25 -6 9 -3 16 -1 16 6 0 6
-5 8 -12 4 -10 -6 -10 -4 0 8 10 13 10 17 -4 22 -26 10 -34 7 -34 -14z"/>
</g>
</svg>
